{"title":"Lewis S09E03 - Magnum Opus pt1 x264 RB58.mp4","uid":12606582,"size":519694310,"categoryP":"video","categoryS":"tv_shows","magnet":"?xt=urn:btih:b4ce2f309d72a4b817b4192b8ea2684fe5c1c205&amp;dn=Lewis+S09E03+-+Magnum+Opus+pt1+x264+RB58.mp4&amp;tr=udp%3A%2F%2Ftracker.leechers-paradise.org%3A6969&amp;tr=udp%3A%2F%2Fzer0day.ch%3A1337&amp;tr=udp%3A%2F%2Fopen.demonii.com%3A1337&amp;tr=udp%3A%2F%2Ftracker.coppersurfer.tk%3A6969&amp;tr=udp%3A%2F%2Fexodus.desync.com%3A6969","seeders":0,"leechers":1,"uploader":"RedBaron58","files":1,"time":1445393559,"description":"Lewis S09E03 - Magnum Opus pt1 x264 mp4\r\n \nhttp://www.imdb.com/title/tt0874608/\r\n\r\n\r\nPlease be patient My intial upload speed is limited.\r\nThank you for your kind comments and feedback on my other torrents, your feedback is welcome.\r\n\r\n\r\nAbout the Episode:\r\nA college dean is found bludgeoned to death in local woodland, following a heated pub debate. \r\nWhen an alchemic image is discovered by the body, denoting the first of four stages of a process \r\ncalled `The Magnum Opus', the detectives realise that there are three more murders to follow. \r\nBefore any more crimes are committed, the team must uncover the guilty secret that the victims \r\nshare in order to learn the identity of the killer and the potential victims\r\n \r\nStarring Kevin Whately, Laurence Fox and Steve Toussaint\r\n\r\n\r\nI hope you enjoy.\r\n\r\n\r\nTechnical:\r\n\r\nGeneral\r\nComplete name                            : H:Lewis S09E03 - Magnum Opus pt1 x264 RB58.mp4\r\nFormat                                   : MPEG-4\r\nFormat profile                           : Base Media\r\nCodec ID                                 : isom\r\nFile size                                : 496 MiB\r\nDuration                                 : 45mn 29s\r\nOverall bit rate                         : 1 523 Kbps\r\nWriting application                      : Lavf54.63.104\r\n\r\nVideo\r\nID                                       : 1\r\nFormat                                   : AVC\r\nFormat/Info                              : Advanced Video Codec\r\nFormat profile                           :   \r\nFormat settings, CABAC                   : Yes\r\nFormat settings, ReFrames                : 4 frames\r\nCodec ID                                 : avc1\r\nCodec ID/Info                            : Advanced Video Coding\r\nDuration                                 : 45mn 29s\r\nBit rate                                 : 1 400 Kbps\r\nWidth                                    : 832 pixels\r\nHeight                                   : 468 pixels\r\nDisplay aspect ratio                     : 16:9\r\nFrame rate mode                          : Constant\r\nFrame rate                               : 25.000 fps\r\nColor space                              : YUV\r\nChroma subsampling                       : 4:2:0\r\nBit depth                                : 8 bits\r\nScan type                                : Progressive\r\nBits/(Pixel*Frame)                       : 0.144\r\nStream size                              : 456 MiB (92%)\r\nWriting library                          : x264 core 123 r2189 35cf912\r\nEncoding settings                        : cabac=1 / ref=3 / deblock=1:0:0\r\n\r\nAudio\r\nID                                       : 2\r\nFormat                                   : AAC\r\nFormat/Info                              : Advanced Audio Codec\r\nFormat profile                           : LC\r\nCodec ID                                 : 40\r\nDuration                                 : 45mn 29s\r\nBit rate mode                            : Constant\r\nBit rate                                 : 114 Kbps\r\nChannel(s)                               : 2 channels\r\nChannel positions                        : Front: L R\r\nSampling rate                            : 48.0 KHz\r\nCompression mode                         : Lossy\r\nStream size                              : 37.1 MiB (7%)\r\nLanguage                                 : English","torrent":{"xt":"urn:btih:b4ce2f309d72a4b817b4192b8ea2684fe5c1c205","amp;dn":"Lewis+S09E03+-+Magnum+Opus+pt1+x264+RB58.mp4","amp;tr":["udp%3A%2F%2Ftracker.leechers-paradise.org%3A6969","udp%3A%2F%2Fzer0day.ch%3A1337","udp%3A%2F%2Fopen.demonii.com%3A1337","udp%3A%2F%2Ftracker.coppersurfer.tk%3A6969","udp%3A%2F%2Fexodus.desync.com%3A6969"],"infoHash":"b4ce2f309d72a4b817b4192b8ea2684fe5c1c205","infoHashBuffer":{"type":"Buffer","data":[180,206,47,48,157,114,164,184,23,180,25,43,142,162,104,79,229,193,194,5]},"announce":[],"urlList":[]}}